<svg width="960" height="700" viewBox="0 0 960 700" fill="none" xmlns="http://www.w3.org/2000/svg">
  <rect width="960" height="700" rx="24" fill="#F8FAFC"/>
  <text x="48" y="64" fill="#0F172A" font-family="Arial, sans-serif" font-size="30" font-weight="700">공통 색상 토큰 미리보기</text>
  <text x="48" y="98" fill="#64748B" font-family="Arial, sans-serif" font-size="16">global.css에 정의된 주요 UI 색상</text>

  <g transform="translate(48 136)">
    <rect width="268" height="112" rx="18" fill="#FFFFFF" stroke="#E2E8F0"/>
    <rect x="20" y="20" width="72" height="72" rx="16" fill="#FAF3F1" stroke="#E5E7EB"/>
    <text x="112" y="42" fill="#0F172A" font-family="Arial, sans-serif" font-size="20" font-weight="700">--page-bg</text>
    <text x="112" y="68" fill="#475569" font-family="Arial, sans-serif" font-size="16">#faf3f1</text>
    <text x="112" y="90" fill="#94A3B8" font-family="Arial, sans-serif" font-size="14">페이지 전체 배경</text>
  </g>

  <g transform="translate(346 136)">
    <rect width="268" height="112" rx="18" fill="#FFFFFF" stroke="#E2E8F0"/>
    <rect x="20" y="20" width="72" height="72" rx="16" fill="#FFFFFF" stroke="#CBD5E1" stroke-width="2"/>
    <text x="112" y="42" fill="#0F172A" font-family="Arial, sans-serif" font-size="20" font-weight="700">--surface</text>
    <text x="112" y="68" fill="#475569" font-family="Arial, sans-serif" font-size="16">#ffffff</text>
    <text x="112" y="90" fill="#94A3B8" font-family="Arial, sans-serif" font-size="14">카드, 흰색 섹션</text>
  </g>

  <g transform="translate(644 136)">
    <rect width="268" height="112" rx="18" fill="#FFFFFF" stroke="#E2E8F0"/>
    <rect x="20" y="20" width="72" height="72" rx="16" fill="#F3F4F6" stroke="#E5E7EB"/>
    <text x="112" y="42" fill="#0F172A" font-family="Arial, sans-serif" font-size="20" font-weight="700">--surface-muted</text>
    <text x="112" y="68" fill="#475569" font-family="Arial, sans-serif" font-size="16">#f3f4f6</text>
    <text x="112" y="90" fill="#94A3B8" font-family="Arial, sans-serif" font-size="14">입력 박스, 연한 영역</text>
  </g>

  <g transform="translate(48 278)">
    <rect width="268" height="112" rx="18" fill="#FFFFFF" stroke="#E2E8F0"/>
    <rect x="20" y="20" width="72" height="72" rx="16" fill="#E5E7EB" stroke="#CBD5E1"/>
    <text x="112" y="42" fill="#0F172A" font-family="Arial, sans-serif" font-size="20" font-weight="700">--line</text>
    <text x="112" y="68" fill="#475569" font-family="Arial, sans-serif" font-size="16">#e5e7eb</text>
    <text x="112" y="90" fill="#94A3B8" font-family="Arial, sans-serif" font-size="14">구분선, 테두리</text>
  </g>

  <g transform="translate(346 278)">
    <rect width="268" height="112" rx="18" fill="#FFFFFF" stroke="#E2E8F0"/>
    <rect x="20" y="20" width="72" height="72" rx="16" fill="#111827"/>
    <text x="112" y="42" fill="#0F172A" font-family="Arial, sans-serif" font-size="20" font-weight="700">--text-primary</text>
    <text x="112" y="68" fill="#475569" font-family="Arial, sans-serif" font-size="16">#111827</text>
    <text x="112" y="90" fill="#94A3B8" font-family="Arial, sans-serif" font-size="14">제목, 금액, 핵심 텍스트</text>
  </g>

  <g transform="translate(644 278)">
    <rect width="268" height="112" rx="18" fill="#FFFFFF" stroke="#E2E8F0"/>
    <rect x="20" y="20" width="72" height="72" rx="16" fill="#6B7280"/>
    <text x="112" y="42" fill="#0F172A" font-family="Arial, sans-serif" font-size="20" font-weight="700">--text-secondary</text>
    <text x="112" y="68" fill="#475569" font-family="Arial, sans-serif" font-size="16">#6b7280</text>
    <text x="112" y="90" fill="#94A3B8" font-family="Arial, sans-serif" font-size="14">라벨, 날짜, 보조 설명</text>
  </g>

  <g transform="translate(48 420)">
    <rect width="268" height="112" rx="18" fill="#FFFFFF" stroke="#E2E8F0"/>
    <rect x="20" y="20" width="72" height="72" rx="16" fill="#9CA3AF"/>
    <text x="112" y="42" fill="#0F172A" font-family="Arial, sans-serif" font-size="20" font-weight="700">--text-muted</text>
    <text x="112" y="68" fill="#475569" font-family="Arial, sans-serif" font-size="16">#9ca3af</text>
    <text x="112" y="90" fill="#94A3B8" font-family="Arial, sans-serif" font-size="14">비활성 텍스트, 아이콘</text>
  </g>

  <g transform="translate(346 420)">
    <rect width="268" height="112" rx="18" fill="#FFFFFF" stroke="#E2E8F0"/>
    <rect x="20" y="20" width="72" height="72" rx="16" fill="#EE8567"/>
    <text x="112" y="42" fill="#0F172A" font-family="Arial, sans-serif" font-size="20" font-weight="700">--accent-ui</text>
    <text x="112" y="68" fill="#475569" font-family="Arial, sans-serif" font-size="16">#ee8567</text>
    <text x="112" y="90" fill="#94A3B8" font-family="Arial, sans-serif" font-size="14">활성 버튼, 탭, 강조 텍스트</text>
  </g>

  <g transform="translate(644 420)">
    <rect width="268" height="112" rx="18" fill="#FFFFFF" stroke="#E2E8F0"/>
    <rect x="20" y="20" width="72" height="72" rx="16" fill="#243047"/>
    <text x="112" y="42" fill="#0F172A" font-family="Arial, sans-serif" font-size="20" font-weight="700">--button-dark</text>
    <text x="112" y="68" fill="#475569" font-family="Arial, sans-serif" font-size="16">#243047</text>
    <text x="112" y="90" fill="#94A3B8" font-family="Arial, sans-serif" font-size="14">진한 버튼 배경</text>
  </g>

  <g transform="translate(48 562)">
    <rect width="268" height="112" rx="18" fill="#FFFFFF" stroke="#E2E8F0"/>
    <rect x="20" y="20" width="72" height="72" rx="16" fill="#EEF2F7" stroke="#E5E7EB"/>
    <text x="112" y="42" fill="#0F172A" font-family="Arial, sans-serif" font-size="20" font-weight="700">--chip-muted</text>
    <text x="112" y="68" fill="#475569" font-family="Arial, sans-serif" font-size="16">#eef2f7</text>
    <text x="112" y="90" fill="#94A3B8" font-family="Arial, sans-serif" font-size="14">회색 칩, 배지 배경</text>
  </g>
</svg>
