<svg width="639" height="509" viewBox="0 0 639 509" fill="none" xmlns="http://www.w3.org/2000/svg">
<ellipse cx="76.2416" cy="54.8153" rx="76.2416" ry="54.8153" transform="matrix(-0.628391 0.777898 -0.785787 -0.618497 476.079 390.384)" fill="#F8029A"/>
<ellipse cx="298.707" cy="254.109" rx="167.028" ry="164.874" fill="#FFAADE"/>
<ellipse cx="49.0635" cy="50.8989" rx="49.0635" ry="50.8989" transform="matrix(-0.844272 0.535916 0.54585 0.837883 106.16 54.2837)" fill="#FFAADE"/>
<path d="M15.6334 54.0098L118.789 100.227L120.808 89.7326L17.6527 43.5158L15.6334 54.0098Z" fill="#03905A"/>
<path d="M67.6719 23.7259L117.916 96.5807C119.645 99.0871 118.988 102.502 116.448 104.208L74.3503 132.497C71.8111 134.203 68.3515 133.555 66.623 131.048L16.3788 58.1935C14.6503 55.6872 15.3074 52.2722 17.8465 50.566L59.9447 22.2771C62.4838 20.5708 65.9434 21.2195 67.6719 23.7259Z" fill="#03905A"/>
<path d="M69.8106 12.6204L120.055 85.4752C121.783 87.9816 121.126 91.3966 118.587 93.1028L76.4889 121.392C73.9498 123.098 70.4902 122.449 68.7617 119.943L18.5174 47.0881C16.7889 44.5817 17.4461 41.1667 19.9852 39.4605L62.0833 11.1716C64.6224 9.46538 68.0821 10.114 69.8106 12.6204Z" fill="#4FC578"/>
<path d="M89.1694 40.6914L100.693 57.4014L49.4002 91.869L37.8762 75.1591L89.1694 40.6914Z" fill="#7BD58F"/>
<path d="M12.9994 85.1529L6.34254 119.748C6.19539 120.512 6.70473 121.247 7.47603 121.391C12.7728 122.384 17.8851 118.952 18.8918 113.72L23.9922 87.214L12.9994 85.1529Z" fill="#E5E8EB"/>
<path d="M40.7054 90.3476L35.9466 115.078C35.8047 115.816 36.2968 116.53 37.0442 116.67C42.1703 117.631 47.1167 114.307 48.0904 109.247L51.3433 92.3422L40.7054 90.3476Z" fill="#E5E8EB"/>
<path d="M13.0001 85.1528L10.492 98.1869L48.8355 105.376L51.3435 92.3419C53.355 81.8884 46.402 71.8065 35.8119 69.8209C25.2218 67.8353 15.0116 74.6993 13.0001 85.1528Z" fill="#E5E8EB"/>
<path d="M32.7454 85.7765C29.7079 85.207 26.7758 87.1773 26.1989 90.1755L20.5326 119.623C20.3854 120.387 20.8948 121.122 21.6661 121.266C26.9662 122.26 32.0826 118.825 33.0899 113.59L37.1992 92.2345C37.7761 89.2363 35.7801 86.342 32.7426 85.7725L32.7454 85.7765Z" fill="#E5E8EB"/>
<path d="M107.298 21.7897L142.344 28.3607C143.119 28.5059 143.624 29.2429 143.478 30.0043C142.472 35.2327 137.362 38.6691 132.062 37.6754L105.21 32.6408L107.298 21.7897Z" fill="#E5E8EB"/>
<path d="M102.036 49.1382L127.089 53.8356C127.837 53.9757 128.329 54.6893 128.187 55.427C127.213 60.487 122.267 63.8109 117.141 62.8498L100.015 59.6389L102.036 49.1382Z" fill="#E5E8EB"/>
<path d="M107.298 21.7896L120.502 24.2653L113.219 62.1143L100.015 59.6386C89.4248 57.653 82.4718 47.5711 84.4833 37.1175C86.4948 26.664 96.7078 19.8041 107.298 21.7896Z" fill="#E5E8EB"/>
<path d="M100.643 40.1474C101.22 37.1491 104.152 35.1788 107.19 35.7483L137.022 41.3415C137.796 41.4868 138.302 42.2237 138.155 42.9851C137.148 48.2169 132.035 51.656 126.731 50.6617L105.097 46.6054C102.06 46.0359 100.064 43.1416 100.641 40.1434L100.643 40.1474Z" fill="#E5E8EB"/>
<ellipse cx="62.0304" cy="64.777" rx="62.0304" ry="64.777" transform="matrix(0.677971 0.735089 -0.743789 0.668414 554.89 160.281)" fill="#FFAADE"/>
<ellipse cx="18.7768" cy="19.9675" rx="18.7768" ry="19.9675" transform="matrix(-1 0 0 1 123.85 103.257)" fill="#FFAADE"/>
<g filter="url(#filter0_n_382_1443)">
<path d="M259.392 232.079C294.662 225.775 367.436 213.085 376.368 212.759C376.397 240.342 384.962 305.191 335.986 313.28C270.819 324.043 264.818 258.77 259.392 232.079Z" fill="#7B1818"/>
</g>
<g filter="url(#filter1_n_382_1443)">
<path d="M273.19 282.74C277.05 261.792 297.206 246.341 320.755 247.346C346.333 248.439 366.226 268.531 365.187 292.224C365.141 293.283 365.052 294.331 364.925 295.368C358.784 304.382 349.614 311.029 335.986 313.279C301.079 319.045 283.15 302.992 273.19 282.74Z" fill="#F47066"/>
</g>
<g filter="url(#filter2_f_382_1443)">
<ellipse cx="221.907" cy="225.658" rx="42.5045" ry="43.9131" fill="#FF7161" fill-opacity="0.4"/>
</g>
<g filter="url(#filter3_n_382_1443)">
<path d="M224.931 128.456L279.016 133.166" stroke="#3C3C3C" stroke-width="8.99081"/>
</g>
<g filter="url(#filter4_n_382_1443)">
<ellipse cx="20.8526" cy="33.3293" rx="20.8526" ry="33.3293" transform="matrix(0.991905 -0.126981 0.130265 0.991479 242.292 146.051)" fill="#3C3C3C"/>
</g>
<g filter="url(#filter5_n_382_1443)">
<ellipse cx="10.492" cy="11.1564" rx="10.492" ry="11.1564" transform="matrix(0.991905 -0.126981 0.130265 0.991479 264.412 150.476)" fill="white"/>
</g>
<path d="M264.411 174.346L267.128 180.546L273.408 183.228L267.128 185.909L264.411 192.109L261.694 185.909L255.414 183.228L261.694 180.546L264.411 174.346Z" fill="white"/>
<g filter="url(#filter6_n_382_1443)">
<ellipse cx="20.8526" cy="33.3293" rx="20.8526" ry="33.3293" transform="matrix(0.991905 -0.126981 0.130265 0.991479 308.975 115.654)" fill="#3C3C3C"/>
</g>
<g filter="url(#filter7_n_382_1443)">
<ellipse cx="10.492" cy="11.1564" rx="10.492" ry="11.1564" transform="matrix(0.991905 -0.126981 0.130265 0.991479 331.092 122.207)" fill="white"/>
</g>
<path d="M331.093 147.812L333.81 154.012L340.091 156.693L333.81 159.375L331.093 165.575L328.376 159.375L322.096 156.693L328.376 154.012L331.093 147.812Z" fill="white"/>
<ellipse cx="76.4318" cy="54.679" rx="76.4318" ry="54.679" transform="matrix(0.766071 0.642756 -0.652517 0.757774 151.757 267.076)" fill="#F8029A"/>
<defs>
<filter id="filter0_n_382_1443" x="259.392" y="212.759" width="117.568" height="101.708" filterUnits="userSpaceOnUse" color-interpolation-filters="sRGB">
<feFlood flood-opacity="0" result="BackgroundImageFix"/>
<feBlend mode="normal" in="SourceGraphic" in2="BackgroundImageFix" result="shape"/>
<feTurbulence type="fractalNoise" baseFrequency="1.1916933059692383 1.1916933059692383" stitchTiles="stitch" numOctaves="3" result="noise" seed="5863" />
<feComponentTransfer in="noise" result="coloredNoise1">
<feFuncR type="linear" slope="2" intercept="-0.5" />
<feFuncG type="linear" slope="2" intercept="-0.5" />
<feFuncB type="linear" slope="2" intercept="-0.5" />
<feFuncA type="discrete" tableValues="1 1 1 1 1 1 1 1 1 1 1 1 1 1 1 1 1 1 1 1 1 1 1 1 1 1 1 1 1 1 1 1 1 1 1 1 1 1 1 1 1 1 1 1 1 1 1 1 1 1 1 0 0 0 0 0 0 0 0 0 0 0 0 0 0 0 0 0 0 0 0 0 0 0 0 0 0 0 0 0 0 0 0 0 0 0 0 0 0 0 0 0 0 0 0 0 0 0 0 0 "/>
</feComponentTransfer>
<feComposite operator="in" in2="shape" in="coloredNoise1" result="noise1Clipped" />
<feComponentTransfer in="noise1Clipped" result="color1">
<feFuncA type="table" tableValues="0 0.15" />
</feComponentTransfer>
<feMerge result="effect1_noise_382_1443">
<feMergeNode in="shape" />
<feMergeNode in="color1" />
</feMerge>
</filter>
<filter id="filter1_n_382_1443" x="273.19" y="247.3" width="92.0361" height="67.1663" filterUnits="userSpaceOnUse" color-interpolation-filters="sRGB">
<feFlood flood-opacity="0" result="BackgroundImageFix"/>
<feBlend mode="normal" in="SourceGraphic" in2="BackgroundImageFix" result="shape"/>
<feTurbulence type="fractalNoise" baseFrequency="1.1916933059692383 1.1916933059692383" stitchTiles="stitch" numOctaves="3" result="noise" seed="5863" />
<feComponentTransfer in="noise" result="coloredNoise1">
<feFuncR type="linear" slope="2" intercept="-0.5" />
<feFuncG type="linear" slope="2" intercept="-0.5" />
<feFuncB type="linear" slope="2" intercept="-0.5" />
<feFuncA type="discrete" tableValues="1 1 1 1 1 1 1 1 1 1 1 1 1 1 1 1 1 1 1 1 1 1 1 1 1 1 1 1 1 1 1 1 1 1 1 1 1 1 1 1 1 1 1 1 1 1 1 1 1 1 1 0 0 0 0 0 0 0 0 0 0 0 0 0 0 0 0 0 0 0 0 0 0 0 0 0 0 0 0 0 0 0 0 0 0 0 0 0 0 0 0 0 0 0 0 0 0 0 0 0 "/>
</feComponentTransfer>
<feComposite operator="in" in2="shape" in="coloredNoise1" result="noise1Clipped" />
<feComponentTransfer in="noise1Clipped" result="color1">
<feFuncA type="table" tableValues="0 0.15" />
</feComponentTransfer>
<feMerge result="effect1_noise_382_1443">
<feMergeNode in="shape" />
<feMergeNode in="color1" />
</feMerge>
</filter>
<filter id="filter2_f_382_1443" x="132.351" y="134.693" width="179.113" height="181.93" filterUnits="userSpaceOnUse" color-interpolation-filters="sRGB">
<feFlood flood-opacity="0" result="BackgroundImageFix"/>
<feBlend mode="normal" in="SourceGraphic" in2="BackgroundImageFix" result="shape"/>
<feGaussianBlur stdDeviation="23.5259" result="effect1_foregroundBlur_382_1443"/>
</filter>
<filter id="filter3_n_382_1443" x="224.519" y="123.982" width="54.9102" height="13.6573" filterUnits="userSpaceOnUse" color-interpolation-filters="sRGB">
<feFlood flood-opacity="0" result="BackgroundImageFix"/>
<feBlend mode="normal" in="SourceGraphic" in2="BackgroundImageFix" result="shape"/>
<feTurbulence type="fractalNoise" baseFrequency="1.1916933059692383 1.1916933059692383" stitchTiles="stitch" numOctaves="3" result="noise" seed="5863" />
<feComponentTransfer in="noise" result="coloredNoise1">
<feFuncR type="linear" slope="2" intercept="-0.5" />
<feFuncG type="linear" slope="2" intercept="-0.5" />
<feFuncB type="linear" slope="2" intercept="-0.5" />
<feFuncA type="discrete" tableValues="1 1 1 1 1 1 1 1 1 1 1 1 1 1 1 1 1 1 1 1 1 1 1 1 1 1 1 1 1 1 1 1 1 1 1 1 1 1 1 1 1 1 1 1 1 1 1 1 1 1 1 0 0 0 0 0 0 0 0 0 0 0 0 0 0 0 0 0 0 0 0 0 0 0 0 0 0 0 0 0 0 0 0 0 0 0 0 0 0 0 0 0 0 0 0 0 0 0 0 0 "/>
</feComponentTransfer>
<feComposite operator="in" in2="shape" in="coloredNoise1" result="noise1Clipped" />
<feComponentTransfer in="noise1Clipped" result="color1">
<feFuncA type="table" tableValues="0 0.15" />
</feComponentTransfer>
<feMerge result="effect1_noise_382_1443">
<feMergeNode in="shape" />
<feMergeNode in="color1" />
</feMerge>
</filter>
<filter id="filter4_n_382_1443" x="246.179" y="143.296" width="42.2778" height="66.3058" filterUnits="userSpaceOnUse" color-interpolation-filters="sRGB">
<feFlood flood-opacity="0" result="BackgroundImageFix"/>
<feBlend mode="normal" in="SourceGraphic" in2="BackgroundImageFix" result="shape"/>
<feTurbulence type="fractalNoise" baseFrequency="1.1916933059692383 1.1916933059692383" stitchTiles="stitch" numOctaves="3" result="noise" seed="5863" />
<feComponentTransfer in="noise" result="coloredNoise1">
<feFuncR type="linear" slope="2" intercept="-0.5" />
<feFuncG type="linear" slope="2" intercept="-0.5" />
<feFuncB type="linear" slope="2" intercept="-0.5" />
<feFuncA type="discrete" tableValues="1 1 1 1 1 1 1 1 1 1 1 1 1 1 1 1 1 1 1 1 1 1 1 1 1 1 1 1 1 1 1 1 1 1 1 1 1 1 1 1 1 1 1 1 1 1 1 1 1 1 1 0 0 0 0 0 0 0 0 0 0 0 0 0 0 0 0 0 0 0 0 0 0 0 0 0 0 0 0 0 0 0 0 0 0 0 0 0 0 0 0 0 0 0 0 0 0 0 0 0 "/>
</feComponentTransfer>
<feComposite operator="in" in2="shape" in="coloredNoise1" result="noise1Clipped" />
<feComponentTransfer in="noise1Clipped" result="color1">
<feFuncA type="table" tableValues="0 0.15" />
</feComponentTransfer>
<feMerge result="effect1_noise_382_1443">
<feMergeNode in="shape" />
<feMergeNode in="color1" />
</feMerge>
</filter>
<filter id="filter5_n_382_1443" x="265.763" y="149.063" width="21.0186" height="22.2849" filterUnits="userSpaceOnUse" color-interpolation-filters="sRGB">
<feFlood flood-opacity="0" result="BackgroundImageFix"/>
<feBlend mode="normal" in="SourceGraphic" in2="BackgroundImageFix" result="shape"/>
<feTurbulence type="fractalNoise" baseFrequency="1.1916933059692383 1.1916933059692383" stitchTiles="stitch" numOctaves="3" result="noise" seed="5863" />
<feComponentTransfer in="noise" result="coloredNoise1">
<feFuncR type="linear" slope="2" intercept="-0.5" />
<feFuncG type="linear" slope="2" intercept="-0.5" />
<feFuncB type="linear" slope="2" intercept="-0.5" />
<feFuncA type="discrete" tableValues="1 1 1 1 1 1 1 1 1 1 1 1 1 1 1 1 1 1 1 1 1 1 1 1 1 1 1 1 1 1 1 1 1 1 1 1 1 1 1 1 1 1 1 1 1 1 1 1 1 1 1 0 0 0 0 0 0 0 0 0 0 0 0 0 0 0 0 0 0 0 0 0 0 0 0 0 0 0 0 0 0 0 0 0 0 0 0 0 0 0 0 0 0 0 0 0 0 0 0 0 "/>
</feComponentTransfer>
<feComposite operator="in" in2="shape" in="coloredNoise1" result="noise1Clipped" />
<feComponentTransfer in="noise1Clipped" result="color1">
<feFuncA type="table" tableValues="0 0.15" />
</feComponentTransfer>
<feMerge result="effect1_noise_382_1443">
<feMergeNode in="shape" />
<feMergeNode in="color1" />
</feMerge>
</filter>
<filter id="filter6_n_382_1443" x="312.861" y="112.898" width="42.2778" height="66.3058" filterUnits="userSpaceOnUse" color-interpolation-filters="sRGB">
<feFlood flood-opacity="0" result="BackgroundImageFix"/>
<feBlend mode="normal" in="SourceGraphic" in2="BackgroundImageFix" result="shape"/>
<feTurbulence type="fractalNoise" baseFrequency="1.1916933059692383 1.1916933059692383" stitchTiles="stitch" numOctaves="3" result="noise" seed="5863" />
<feComponentTransfer in="noise" result="coloredNoise1">
<feFuncR type="linear" slope="2" intercept="-0.5" />
<feFuncG type="linear" slope="2" intercept="-0.5" />
<feFuncB type="linear" slope="2" intercept="-0.5" />
<feFuncA type="discrete" tableValues="1 1 1 1 1 1 1 1 1 1 1 1 1 1 1 1 1 1 1 1 1 1 1 1 1 1 1 1 1 1 1 1 1 1 1 1 1 1 1 1 1 1 1 1 1 1 1 1 1 1 1 0 0 0 0 0 0 0 0 0 0 0 0 0 0 0 0 0 0 0 0 0 0 0 0 0 0 0 0 0 0 0 0 0 0 0 0 0 0 0 0 0 0 0 0 0 0 0 0 0 "/>
</feComponentTransfer>
<feComposite operator="in" in2="shape" in="coloredNoise1" result="noise1Clipped" />
<feComponentTransfer in="noise1Clipped" result="color1">
<feFuncA type="table" tableValues="0 0.15" />
</feComponentTransfer>
<feMerge result="effect1_noise_382_1443">
<feMergeNode in="shape" />
<feMergeNode in="color1" />
</feMerge>
</filter>
<filter id="filter7_n_382_1443" x="332.443" y="120.794" width="21.0186" height="22.2849" filterUnits="userSpaceOnUse" color-interpolation-filters="sRGB">
<feFlood flood-opacity="0" result="BackgroundImageFix"/>
<feBlend mode="normal" in="SourceGraphic" in2="BackgroundImageFix" result="shape"/>
<feTurbulence type="fractalNoise" baseFrequency="1.1916933059692383 1.1916933059692383" stitchTiles="stitch" numOctaves="3" result="noise" seed="5863" />
<feComponentTransfer in="noise" result="coloredNoise1">
<feFuncR type="linear" slope="2" intercept="-0.5" />
<feFuncG type="linear" slope="2" intercept="-0.5" />
<feFuncB type="linear" slope="2" intercept="-0.5" />
<feFuncA type="discrete" tableValues="1 1 1 1 1 1 1 1 1 1 1 1 1 1 1 1 1 1 1 1 1 1 1 1 1 1 1 1 1 1 1 1 1 1 1 1 1 1 1 1 1 1 1 1 1 1 1 1 1 1 1 0 0 0 0 0 0 0 0 0 0 0 0 0 0 0 0 0 0 0 0 0 0 0 0 0 0 0 0 0 0 0 0 0 0 0 0 0 0 0 0 0 0 0 0 0 0 0 0 0 "/>
</feComponentTransfer>
<feComposite operator="in" in2="shape" in="coloredNoise1" result="noise1Clipped" />
<feComponentTransfer in="noise1Clipped" result="color1">
<feFuncA type="table" tableValues="0 0.15" />
</feComponentTransfer>
<feMerge result="effect1_noise_382_1443">
<feMergeNode in="shape" />
<feMergeNode in="color1" />
</feMerge>
</filter>
</defs>
</svg>
