<svg width="582" height="556" viewBox="0 0 582 556" fill="none" xmlns="http://www.w3.org/2000/svg">
<ellipse cx="425.09" cy="463.467" rx="75.2487" ry="53.9453" transform="rotate(128.568 425.09 463.467)" fill="#F8029A"/>
<circle cx="340.498" cy="303.078" r="163.557" fill="#FFAADE"/>
<ellipse cx="490.7" cy="122.241" rx="48.2248" ry="50.299" transform="rotate(32.7435 490.7 122.241)" fill="#FFAADE"/>
<path d="M565.988 53.5783L464.977 99.4257L463 89.0156L564.011 43.1682L565.988 53.5783Z" fill="#03905A"/>
<path d="M515.031 23.5364L465.831 95.8091C464.138 98.2955 464.782 101.683 467.268 103.376L508.491 131.439C510.978 133.131 514.365 132.488 516.058 130.001L565.258 57.7287C566.95 55.2423 566.307 51.8546 563.821 50.162L522.597 22.0992C520.111 20.4066 516.723 21.0501 515.031 23.5364Z" fill="#03905A"/>
<path d="M512.936 12.5197L463.736 84.7924C462.044 87.2787 462.687 90.6664 465.173 92.359L506.396 120.422C508.883 122.114 512.271 121.471 513.963 118.985L563.163 46.712C564.856 44.2256 564.212 40.8379 561.726 39.1453L520.503 11.0825C518.016 9.38988 514.629 10.0333 512.936 12.5197Z" fill="#4FC578"/>
<path d="M493.98 40.3664L482.695 56.9429L532.922 91.1351L544.207 74.5587L493.98 40.3664Z" fill="#7BD58F"/>
<path d="M568.567 84.4726L575.085 118.791C575.229 119.549 574.73 120.278 573.975 120.421C568.788 121.406 563.782 118.001 562.797 112.811L557.802 86.5172L568.567 84.4726Z" fill="#E5E8EB"/>
<path d="M541.437 89.6258L546.097 114.159C546.236 114.891 545.754 115.599 545.022 115.738C540.002 116.691 535.159 113.394 534.205 108.374L531.02 91.6044L541.437 89.6258Z" fill="#E5E8EB"/>
<path d="M568.566 84.4725L571.022 97.4024L533.476 104.534L531.02 91.6042C529.05 81.2342 535.859 71.2328 546.229 69.2631C556.599 67.2934 566.597 74.1025 568.566 84.4725Z" fill="#E5E8EB"/>
<path d="M549.231 85.0912C552.205 84.5263 555.076 86.4808 555.641 89.4551L561.19 118.667C561.334 119.425 560.835 120.154 560.08 120.297C554.89 121.283 549.88 117.875 548.893 112.682L544.869 91.4977C544.304 88.5233 546.259 85.6522 549.233 85.0872L549.231 85.0912Z" fill="#E5E8EB"/>
<path d="M476.227 21.6158L441.909 28.1343C441.151 28.2784 440.656 29.0094 440.799 29.7647C441.784 34.9514 446.788 38.3603 451.978 37.3745L478.272 32.3801L476.227 21.6158Z" fill="#E5E8EB"/>
<path d="M481.38 48.7456L456.847 53.4055C456.115 53.5445 455.633 54.2523 455.773 54.9842C456.726 60.0038 461.57 63.3011 466.589 62.3477L483.359 59.1624L481.38 48.7456Z" fill="#E5E8EB"/>
<path d="M476.228 21.6158L463.298 24.0717L470.43 61.6182L483.36 59.1623C493.73 57.1926 500.538 47.1912 498.568 36.8212C496.599 26.4512 486.598 19.6461 476.228 21.6158Z" fill="#E5E8EB"/>
<path d="M482.744 39.8269C482.179 36.8526 479.308 34.898 476.333 35.4629L447.122 41.0115C446.363 41.1556 445.868 41.8866 446.012 42.6419C446.998 47.8319 452.005 51.2436 457.198 50.2571L478.383 46.2333C481.357 45.6684 483.311 42.7972 482.747 39.8229L482.744 39.8269Z" fill="#E5E8EB"/>
<ellipse cx="88.3596" cy="315.186" rx="61.1713" ry="63.8023" transform="rotate(47.6852 88.3596 315.186)" fill="#FFAADE"/>
<ellipse cx="478.408" cy="122.241" rx="18.3865" ry="19.8079" fill="#FFAADE"/>
<g filter="url(#filter0_n_382_1324)">
<path d="M302 283.225C336.538 276.971 407.799 264.382 416.545 264.06C416.574 291.422 424.961 355.753 377.002 363.777C313.19 374.454 307.313 309.703 302 283.225Z" fill="#7B1818"/>
</g>
<g filter="url(#filter1_n_382_1324)">
<path d="M315.511 333.481C319.291 312.7 339.03 297.373 362.089 298.37C387.135 299.454 406.615 319.386 405.598 342.89C405.552 343.94 405.465 344.98 405.34 346.008C399.327 354.95 390.347 361.544 377.002 363.777C342.82 369.496 325.264 353.571 315.511 333.481Z" fill="#F47066"/>
</g>
<g filter="url(#filter2_f_382_1324)">
<ellipse cx="265.294" cy="276.855" rx="41.621" ry="43.5622" fill="#FF7161" fill-opacity="0.4"/>
</g>
<g filter="url(#filter3_n_382_1324)">
<path d="M268.256 180.43L321.217 185.102" stroke="#3C3C3C" stroke-width="8.99081"/>
</g>
<g filter="url(#filter4_n_382_1324)">
<ellipse cx="309.762" cy="228.039" rx="20.4236" ry="33.0558" transform="rotate(-7.38946 309.762 228.039)" fill="#3C3C3C"/>
</g>
<g filter="url(#filter5_n_382_1324)">
<ellipse cx="318.529" cy="211.926" rx="10.2761" ry="11.0649" transform="rotate(-7.38946 318.529 211.926)" fill="white"/>
</g>
<path d="M306.915 225.954L309.576 232.104L315.726 234.764L309.576 237.424L306.915 243.574L304.255 237.424L298.105 234.764L304.255 232.104L306.915 225.954Z" fill="white"/>
<g filter="url(#filter6_n_382_1324)">
<ellipse cx="375.057" cy="197.884" rx="20.4236" ry="33.0558" transform="rotate(-7.38946 375.057 197.884)" fill="#3C3C3C"/>
</g>
<g filter="url(#filter7_n_382_1324)">
<ellipse cx="383.824" cy="183.883" rx="10.2761" ry="11.0649" transform="rotate(-7.38946 383.824 183.883)" fill="white"/>
</g>
<path d="M372.211 199.631L374.871 205.781L381.021 208.442L374.871 211.102L372.211 217.252L369.551 211.102L363.4 208.442L369.551 205.781L372.211 199.631Z" fill="white"/>
<ellipse cx="219.001" cy="405.78" rx="75.2487" ry="53.9453" transform="rotate(40.3642 219.001 405.78)" fill="#F8029A"/>
<defs>
<filter id="filter0_n_382_1324" x="302" y="264.06" width="115.125" height="100.895" filterUnits="userSpaceOnUse" color-interpolation-filters="sRGB">
<feFlood flood-opacity="0" result="BackgroundImageFix"/>
<feBlend mode="normal" in="SourceGraphic" in2="BackgroundImageFix" result="shape"/>
<feTurbulence type="fractalNoise" baseFrequency="1.1916933059692383 1.1916933059692383" stitchTiles="stitch" numOctaves="3" result="noise" seed="5863" />
<feComponentTransfer in="noise" result="coloredNoise1">
<feFuncR type="linear" slope="2" intercept="-0.5" />
<feFuncG type="linear" slope="2" intercept="-0.5" />
<feFuncB type="linear" slope="2" intercept="-0.5" />
<feFuncA type="discrete" tableValues="1 1 1 1 1 1 1 1 1 1 1 1 1 1 1 1 1 1 1 1 1 1 1 1 1 1 1 1 1 1 1 1 1 1 1 1 1 1 1 1 1 1 1 1 1 1 1 1 1 1 1 0 0 0 0 0 0 0 0 0 0 0 0 0 0 0 0 0 0 0 0 0 0 0 0 0 0 0 0 0 0 0 0 0 0 0 0 0 0 0 0 0 0 0 0 0 0 0 0 0 "/>
</feComponentTransfer>
<feComposite operator="in" in2="shape" in="coloredNoise1" result="noise1Clipped" />
<feComponentTransfer in="noise1Clipped" result="color1">
<feFuncA type="table" tableValues="0 0.15" />
</feComponentTransfer>
<feMerge result="effect1_noise_382_1324">
<feMergeNode in="shape" />
<feMergeNode in="color1" />
</feMerge>
</filter>
<filter id="filter1_n_382_1324" x="315.511" y="298.324" width="90.125" height="66.6299" filterUnits="userSpaceOnUse" color-interpolation-filters="sRGB">
<feFlood flood-opacity="0" result="BackgroundImageFix"/>
<feBlend mode="normal" in="SourceGraphic" in2="BackgroundImageFix" result="shape"/>
<feTurbulence type="fractalNoise" baseFrequency="1.1916933059692383 1.1916933059692383" stitchTiles="stitch" numOctaves="3" result="noise" seed="5863" />
<feComponentTransfer in="noise" result="coloredNoise1">
<feFuncR type="linear" slope="2" intercept="-0.5" />
<feFuncG type="linear" slope="2" intercept="-0.5" />
<feFuncB type="linear" slope="2" intercept="-0.5" />
<feFuncA type="discrete" tableValues="1 1 1 1 1 1 1 1 1 1 1 1 1 1 1 1 1 1 1 1 1 1 1 1 1 1 1 1 1 1 1 1 1 1 1 1 1 1 1 1 1 1 1 1 1 1 1 1 1 1 1 0 0 0 0 0 0 0 0 0 0 0 0 0 0 0 0 0 0 0 0 0 0 0 0 0 0 0 0 0 0 0 0 0 0 0 0 0 0 0 0 0 0 0 0 0 0 0 0 0 "/>
</feComponentTransfer>
<feComposite operator="in" in2="shape" in="coloredNoise1" result="noise1Clipped" />
<feComponentTransfer in="noise1Clipped" result="color1">
<feFuncA type="table" tableValues="0 0.15" />
</feComponentTransfer>
<feMerge result="effect1_noise_382_1324">
<feMergeNode in="shape" />
<feMergeNode in="color1" />
</feMerge>
</filter>
<filter id="filter2_f_382_1324" x="176.621" y="186.241" width="177.346" height="181.228" filterUnits="userSpaceOnUse" color-interpolation-filters="sRGB">
<feFlood flood-opacity="0" result="BackgroundImageFix"/>
<feBlend mode="normal" in="SourceGraphic" in2="BackgroundImageFix" result="shape"/>
<feGaussianBlur stdDeviation="23.5259" result="effect1_foregroundBlur_382_1324"/>
</filter>
<filter id="filter3_n_382_1324" x="267.86" y="175.952" width="53.751" height="13.6283" filterUnits="userSpaceOnUse" color-interpolation-filters="sRGB">
<feFlood flood-opacity="0" result="BackgroundImageFix"/>
<feBlend mode="normal" in="SourceGraphic" in2="BackgroundImageFix" result="shape"/>
<feTurbulence type="fractalNoise" baseFrequency="1.1916933059692383 1.1916933059692383" stitchTiles="stitch" numOctaves="3" result="noise" seed="5863" />
<feComponentTransfer in="noise" result="coloredNoise1">
<feFuncR type="linear" slope="2" intercept="-0.5" />
<feFuncG type="linear" slope="2" intercept="-0.5" />
<feFuncB type="linear" slope="2" intercept="-0.5" />
<feFuncA type="discrete" tableValues="1 1 1 1 1 1 1 1 1 1 1 1 1 1 1 1 1 1 1 1 1 1 1 1 1 1 1 1 1 1 1 1 1 1 1 1 1 1 1 1 1 1 1 1 1 1 1 1 1 1 1 0 0 0 0 0 0 0 0 0 0 0 0 0 0 0 0 0 0 0 0 0 0 0 0 0 0 0 0 0 0 0 0 0 0 0 0 0 0 0 0 0 0 0 0 0 0 0 0 0 "/>
</feComponentTransfer>
<feComposite operator="in" in2="shape" in="coloredNoise1" result="noise1Clipped" />
<feComponentTransfer in="noise1Clipped" result="color1">
<feFuncA type="table" tableValues="0 0.15" />
</feComponentTransfer>
<feMerge result="effect1_noise_382_1324">
<feMergeNode in="shape" />
<feMergeNode in="color1" />
</feMerge>
</filter>
<filter id="filter4_n_382_1324" x="289.062" y="195.151" width="41.3994" height="65.776" filterUnits="userSpaceOnUse" color-interpolation-filters="sRGB">
<feFlood flood-opacity="0" result="BackgroundImageFix"/>
<feBlend mode="normal" in="SourceGraphic" in2="BackgroundImageFix" result="shape"/>
<feTurbulence type="fractalNoise" baseFrequency="1.1916933059692383 1.1916933059692383" stitchTiles="stitch" numOctaves="3" result="noise" seed="5863" />
<feComponentTransfer in="noise" result="coloredNoise1">
<feFuncR type="linear" slope="2" intercept="-0.5" />
<feFuncG type="linear" slope="2" intercept="-0.5" />
<feFuncB type="linear" slope="2" intercept="-0.5" />
<feFuncA type="discrete" tableValues="1 1 1 1 1 1 1 1 1 1 1 1 1 1 1 1 1 1 1 1 1 1 1 1 1 1 1 1 1 1 1 1 1 1 1 1 1 1 1 1 1 1 1 1 1 1 1 1 1 1 1 0 0 0 0 0 0 0 0 0 0 0 0 0 0 0 0 0 0 0 0 0 0 0 0 0 0 0 0 0 0 0 0 0 0 0 0 0 0 0 0 0 0 0 0 0 0 0 0 0 "/>
</feComponentTransfer>
<feComposite operator="in" in2="shape" in="coloredNoise1" result="noise1Clipped" />
<feComponentTransfer in="noise1Clipped" result="color1">
<feFuncA type="table" tableValues="0 0.15" />
</feComponentTransfer>
<feMerge result="effect1_noise_382_1324">
<feMergeNode in="shape" />
<feMergeNode in="color1" />
</feMerge>
</filter>
<filter id="filter5_n_382_1324" x="308.238" y="200.872" width="20.582" height="22.1068" filterUnits="userSpaceOnUse" color-interpolation-filters="sRGB">
<feFlood flood-opacity="0" result="BackgroundImageFix"/>
<feBlend mode="normal" in="SourceGraphic" in2="BackgroundImageFix" result="shape"/>
<feTurbulence type="fractalNoise" baseFrequency="1.1916933059692383 1.1916933059692383" stitchTiles="stitch" numOctaves="3" result="noise" seed="5863" />
<feComponentTransfer in="noise" result="coloredNoise1">
<feFuncR type="linear" slope="2" intercept="-0.5" />
<feFuncG type="linear" slope="2" intercept="-0.5" />
<feFuncB type="linear" slope="2" intercept="-0.5" />
<feFuncA type="discrete" tableValues="1 1 1 1 1 1 1 1 1 1 1 1 1 1 1 1 1 1 1 1 1 1 1 1 1 1 1 1 1 1 1 1 1 1 1 1 1 1 1 1 1 1 1 1 1 1 1 1 1 1 1 0 0 0 0 0 0 0 0 0 0 0 0 0 0 0 0 0 0 0 0 0 0 0 0 0 0 0 0 0 0 0 0 0 0 0 0 0 0 0 0 0 0 0 0 0 0 0 0 0 "/>
</feComponentTransfer>
<feComposite operator="in" in2="shape" in="coloredNoise1" result="noise1Clipped" />
<feComponentTransfer in="noise1Clipped" result="color1">
<feFuncA type="table" tableValues="0 0.15" />
</feComponentTransfer>
<feMerge result="effect1_noise_382_1324">
<feMergeNode in="shape" />
<feMergeNode in="color1" />
</feMerge>
</filter>
<filter id="filter6_n_382_1324" x="354.357" y="164.996" width="41.3994" height="65.776" filterUnits="userSpaceOnUse" color-interpolation-filters="sRGB">
<feFlood flood-opacity="0" result="BackgroundImageFix"/>
<feBlend mode="normal" in="SourceGraphic" in2="BackgroundImageFix" result="shape"/>
<feTurbulence type="fractalNoise" baseFrequency="1.1916933059692383 1.1916933059692383" stitchTiles="stitch" numOctaves="3" result="noise" seed="5863" />
<feComponentTransfer in="noise" result="coloredNoise1">
<feFuncR type="linear" slope="2" intercept="-0.5" />
<feFuncG type="linear" slope="2" intercept="-0.5" />
<feFuncB type="linear" slope="2" intercept="-0.5" />
<feFuncA type="discrete" tableValues="1 1 1 1 1 1 1 1 1 1 1 1 1 1 1 1 1 1 1 1 1 1 1 1 1 1 1 1 1 1 1 1 1 1 1 1 1 1 1 1 1 1 1 1 1 1 1 1 1 1 1 0 0 0 0 0 0 0 0 0 0 0 0 0 0 0 0 0 0 0 0 0 0 0 0 0 0 0 0 0 0 0 0 0 0 0 0 0 0 0 0 0 0 0 0 0 0 0 0 0 "/>
</feComponentTransfer>
<feComposite operator="in" in2="shape" in="coloredNoise1" result="noise1Clipped" />
<feComponentTransfer in="noise1Clipped" result="color1">
<feFuncA type="table" tableValues="0 0.15" />
</feComponentTransfer>
<feMerge result="effect1_noise_382_1324">
<feMergeNode in="shape" />
<feMergeNode in="color1" />
</feMerge>
</filter>
<filter id="filter7_n_382_1324" x="373.533" y="172.829" width="20.582" height="22.1068" filterUnits="userSpaceOnUse" color-interpolation-filters="sRGB">
<feFlood flood-opacity="0" result="BackgroundImageFix"/>
<feBlend mode="normal" in="SourceGraphic" in2="BackgroundImageFix" result="shape"/>
<feTurbulence type="fractalNoise" baseFrequency="1.1916933059692383 1.1916933059692383" stitchTiles="stitch" numOctaves="3" result="noise" seed="5863" />
<feComponentTransfer in="noise" result="coloredNoise1">
<feFuncR type="linear" slope="2" intercept="-0.5" />
<feFuncG type="linear" slope="2" intercept="-0.5" />
<feFuncB type="linear" slope="2" intercept="-0.5" />
<feFuncA type="discrete" tableValues="1 1 1 1 1 1 1 1 1 1 1 1 1 1 1 1 1 1 1 1 1 1 1 1 1 1 1 1 1 1 1 1 1 1 1 1 1 1 1 1 1 1 1 1 1 1 1 1 1 1 1 0 0 0 0 0 0 0 0 0 0 0 0 0 0 0 0 0 0 0 0 0 0 0 0 0 0 0 0 0 0 0 0 0 0 0 0 0 0 0 0 0 0 0 0 0 0 0 0 0 "/>
</feComponentTransfer>
<feComposite operator="in" in2="shape" in="coloredNoise1" result="noise1Clipped" />
<feComponentTransfer in="noise1Clipped" result="color1">
<feFuncA type="table" tableValues="0 0.15" />
</feComponentTransfer>
<feMerge result="effect1_noise_382_1324">
<feMergeNode in="shape" />
<feMergeNode in="color1" />
</feMerge>
</filter>
</defs>
</svg>
