<svg width="582" height="556" viewBox="0 0 582 556" fill="none" xmlns="http://www.w3.org/2000/svg">
<ellipse cx="76.6023" cy="55.0832" rx="76.6023" ry="55.0832" transform="matrix(-0.628658 0.777682 -0.785998 -0.618229 323.538 436.786)" fill="#F8029A"/>
<ellipse cx="334.122" cy="306.88" rx="167.89" ry="165.608" fill="#FFAADE"/>
<ellipse cx="49.3066" cy="51.1362" rx="49.3066" ry="51.1362" transform="matrix(0.844441 0.535648 -0.546118 0.837708 474.593 54.5255)" fill="#FFAADE"/>
<path d="M565.525 54.2976L461.985 100.673L459.93 90.0849L563.471 43.7096L565.525 54.2976Z" fill="#03905A"/>
<path d="M513.147 23.825L462.768 96.8986C461.035 99.4125 461.704 102.845 464.264 104.564L506.693 133.077C509.253 134.796 512.732 134.153 514.465 131.639L564.845 58.565C566.578 56.0511 565.908 52.6191 563.349 50.8994L520.919 22.387C518.36 20.6673 514.88 21.3111 513.147 23.825Z" fill="#03905A"/>
<path d="M510.997 12.6701L460.618 85.7437C458.885 88.2576 459.555 91.6896 462.114 93.4093L504.544 121.922C507.103 123.641 510.582 122.998 512.315 120.484L562.695 47.4101C564.428 44.8962 563.758 41.4642 561.199 39.7445L518.769 11.2321C516.21 9.51241 512.731 10.1562 510.997 12.6701Z" fill="#4FC578"/>
<path d="M491.622 40.8728L480.087 57.6022L531.693 92.2783L543.228 75.549L491.622 40.8728Z" fill="#7BD58F"/>
<path d="M568.144 85.5322L574.921 120.319C575.071 121.088 574.566 121.824 573.797 121.966C568.516 122.945 563.402 119.477 562.377 114.216L557.184 87.563L568.144 85.5322Z" fill="#E5E8EB"/>
<path d="M540.313 90.75L545.164 115.626C545.309 116.368 544.82 117.084 544.074 117.222C538.956 118.169 534.001 114.81 533.008 109.72L529.692 92.7159L540.313 90.75Z" fill="#E5E8EB"/>
<path d="M568.187 85.6022L570.754 98.7427L532.326 105.845L529.759 92.7049C527.7 82.166 534.634 72.0343 545.247 70.0726C555.861 68.111 566.128 75.0634 568.187 85.6022Z" fill="#E5E8EB"/>
<path d="M548.341 86.1387C551.369 85.5775 554.302 87.5681 554.889 90.583L560.658 120.193C560.808 120.962 560.302 121.698 559.533 121.841C554.249 122.82 549.131 119.349 548.106 114.085L543.922 92.6117C543.335 89.5968 545.315 86.6958 548.343 86.1347L548.341 86.1387Z" fill="#E5E8EB"/>
<path d="M473.406 21.8868L438.219 28.4048C437.442 28.5489 436.937 29.2926 437.087 30.0633C438.118 35.3563 443.266 38.8515 448.587 37.8657L475.547 32.8718L473.406 21.8868Z" fill="#E5E8EB"/>
<path d="M478.697 49.3569L453.552 54.0103C452.802 54.1491 452.311 54.8682 452.456 55.6141C453.454 60.7296 458.435 64.1058 463.58 63.1537L480.768 59.9728L478.697 49.3569Z" fill="#E5E8EB"/>
<path d="M473.397 21.8241L460.176 24.2677L467.623 62.3909L480.844 59.9473C491.447 57.9875 498.374 47.865 496.317 37.3358C494.261 26.8065 484 19.8643 473.397 21.8241Z" fill="#E5E8EB"/>
<path d="M480.116 40.3693C479.524 37.3339 476.571 35.3298 473.521 35.8947L443.569 41.443C442.792 41.5871 442.287 42.3308 442.437 43.1016C443.469 48.3981 448.621 51.8962 453.946 50.9098L475.666 46.8862C478.716 46.3213 480.71 43.4006 480.119 40.3652L480.116 40.3693Z" fill="#E5E8EB"/>
<ellipse cx="62.3267" cy="65.0907" rx="62.3267" ry="65.0907" transform="matrix(0.678227 0.734852 -0.744022 0.668155 96.8579 246.048)" fill="#FFAADE"/>
<ellipse cx="76.6023" cy="55.0832" rx="76.6023" ry="55.0832" transform="matrix(-0.628658 0.777682 -0.785998 -0.618229 577.654 374.988)" fill="#F8029A"/>
<ellipse cx="475.685" cy="123.774" rx="18.8737" ry="20.0564" fill="#FFAADE"/>
<g filter="url(#filter0_n_382_327)">
<path d="M294.605 284.752C330.057 278.42 403.206 265.673 412.185 265.347C412.214 293.052 420.823 358.19 371.594 366.315C306.091 377.126 300.059 311.562 294.605 284.752Z" fill="#7B1818"/>
</g>
<g filter="url(#filter1_n_382_327)">
<path d="M308.429 335.272C312.402 314.428 332.586 299.126 356.194 300.177C381.954 301.324 402.031 321.506 401.038 345.255C400.995 346.285 400.912 347.304 400.792 348.312C394.646 357.444 385.43 364.172 371.681 366.42C336.484 372.178 318.444 355.808 308.429 335.272Z" fill="#F47066"/>
</g>
<g filter="url(#filter2_f_382_327)">
<ellipse cx="256.927" cy="278.302" rx="42.7237" ry="44.1086" fill="#FF7161" fill-opacity="0.4"/>
</g>
<g filter="url(#filter3_n_382_327)">
<path d="M259.967 180.668L314.331 185.399" stroke="#3C3C3C" stroke-width="8.99081"/>
</g>
<g filter="url(#filter4_n_382_327)">
<ellipse cx="20.96" cy="33.4781" rx="20.96" ry="33.4781" transform="matrix(0.991916 -0.126894 0.130355 0.991467 277.417 198.341)" fill="#3C3C3C"/>
</g>
<g filter="url(#filter5_n_382_327)">
<ellipse cx="10.546" cy="11.2063" rx="10.546" ry="11.2063" transform="matrix(0.991916 -0.126894 0.130355 0.991467 299.651 202.786)" fill="white"/>
</g>
<path d="M299.65 226.762L302.381 232.99L308.694 235.683L302.381 238.377L299.65 244.604L296.92 238.377L290.606 235.683L296.92 232.99L299.65 226.762Z" fill="white"/>
<g filter="url(#filter6_n_382_327)">
<ellipse cx="20.96" cy="33.4781" rx="20.96" ry="33.4781" transform="matrix(0.991916 -0.126894 0.130355 0.991467 344.443 167.808)" fill="#3C3C3C"/>
</g>
<g filter="url(#filter7_n_382_327)">
<ellipse cx="10.546" cy="11.2063" rx="10.546" ry="11.2063" transform="matrix(0.991916 -0.126894 0.130355 0.991467 366.676 174.391)" fill="white"/>
</g>
<path d="M366.676 200.11L369.406 206.337L375.719 209.031L369.406 211.724L366.676 217.952L363.945 211.724L357.632 209.031L363.945 206.337L366.676 200.11Z" fill="white"/>
<defs>
<filter id="filter0_n_382_327" x="294.605" y="265.347" width="118.175" height="102.16" filterUnits="userSpaceOnUse" color-interpolation-filters="sRGB">
<feFlood flood-opacity="0" result="BackgroundImageFix"/>
<feBlend mode="normal" in="SourceGraphic" in2="BackgroundImageFix" result="shape"/>
<feTurbulence type="fractalNoise" baseFrequency="1.1916933059692383 1.1916933059692383" stitchTiles="stitch" numOctaves="3" result="noise" seed="5863" />
<feComponentTransfer in="noise" result="coloredNoise1">
<feFuncR type="linear" slope="2" intercept="-0.5" />
<feFuncG type="linear" slope="2" intercept="-0.5" />
<feFuncB type="linear" slope="2" intercept="-0.5" />
<feFuncA type="discrete" tableValues="1 1 1 1 1 1 1 1 1 1 1 1 1 1 1 1 1 1 1 1 1 1 1 1 1 1 1 1 1 1 1 1 1 1 1 1 1 1 1 1 1 1 1 1 1 1 1 1 1 1 1 0 0 0 0 0 0 0 0 0 0 0 0 0 0 0 0 0 0 0 0 0 0 0 0 0 0 0 0 0 0 0 0 0 0 0 0 0 0 0 0 0 0 0 0 0 0 0 0 0 "/>
</feComponentTransfer>
<feComposite operator="in" in2="shape" in="coloredNoise1" result="noise1Clipped" />
<feComponentTransfer in="noise1Clipped" result="color1">
<feFuncA type="table" tableValues="0 0.15" />
</feComponentTransfer>
<feMerge result="effect1_noise_382_327">
<feMergeNode in="shape" />
<feMergeNode in="color1" />
</feMerge>
</filter>
<filter id="filter1_n_382_327" x="308.429" y="300.126" width="92.645" height="67.4608" filterUnits="userSpaceOnUse" color-interpolation-filters="sRGB">
<feFlood flood-opacity="0" result="BackgroundImageFix"/>
<feBlend mode="normal" in="SourceGraphic" in2="BackgroundImageFix" result="shape"/>
<feTurbulence type="fractalNoise" baseFrequency="1.1916933059692383 1.1916933059692383" stitchTiles="stitch" numOctaves="3" result="noise" seed="5863" />
<feComponentTransfer in="noise" result="coloredNoise1">
<feFuncR type="linear" slope="2" intercept="-0.5" />
<feFuncG type="linear" slope="2" intercept="-0.5" />
<feFuncB type="linear" slope="2" intercept="-0.5" />
<feFuncA type="discrete" tableValues="1 1 1 1 1 1 1 1 1 1 1 1 1 1 1 1 1 1 1 1 1 1 1 1 1 1 1 1 1 1 1 1 1 1 1 1 1 1 1 1 1 1 1 1 1 1 1 1 1 1 1 0 0 0 0 0 0 0 0 0 0 0 0 0 0 0 0 0 0 0 0 0 0 0 0 0 0 0 0 0 0 0 0 0 0 0 0 0 0 0 0 0 0 0 0 0 0 0 0 0 "/>
</feComponentTransfer>
<feComposite operator="in" in2="shape" in="coloredNoise1" result="noise1Clipped" />
<feComponentTransfer in="noise1Clipped" result="color1">
<feFuncA type="table" tableValues="0 0.15" />
</feComponentTransfer>
<feMerge result="effect1_noise_382_327">
<feMergeNode in="shape" />
<feMergeNode in="color1" />
</feMerge>
</filter>
<filter id="filter2_f_382_327" x="167.151" y="187.142" width="179.551" height="182.321" filterUnits="userSpaceOnUse" color-interpolation-filters="sRGB">
<feFlood flood-opacity="0" result="BackgroundImageFix"/>
<feBlend mode="normal" in="SourceGraphic" in2="BackgroundImageFix" result="shape"/>
<feGaussianBlur stdDeviation="23.5259" result="effect1_foregroundBlur_382_327"/>
</filter>
<filter id="filter3_n_382_327" x="259.553" y="176.194" width="55.1909" height="13.6779" filterUnits="userSpaceOnUse" color-interpolation-filters="sRGB">
<feFlood flood-opacity="0" result="BackgroundImageFix"/>
<feBlend mode="normal" in="SourceGraphic" in2="BackgroundImageFix" result="shape"/>
<feTurbulence type="fractalNoise" baseFrequency="1.1916933059692383 1.1916933059692383" stitchTiles="stitch" numOctaves="3" result="noise" seed="5863" />
<feComponentTransfer in="noise" result="coloredNoise1">
<feFuncR type="linear" slope="2" intercept="-0.5" />
<feFuncG type="linear" slope="2" intercept="-0.5" />
<feFuncB type="linear" slope="2" intercept="-0.5" />
<feFuncA type="discrete" tableValues="1 1 1 1 1 1 1 1 1 1 1 1 1 1 1 1 1 1 1 1 1 1 1 1 1 1 1 1 1 1 1 1 1 1 1 1 1 1 1 1 1 1 1 1 1 1 1 1 1 1 1 0 0 0 0 0 0 0 0 0 0 0 0 0 0 0 0 0 0 0 0 0 0 0 0 0 0 0 0 0 0 0 0 0 0 0 0 0 0 0 0 0 0 0 0 0 0 0 0 0 "/>
</feComponentTransfer>
<feComposite operator="in" in2="shape" in="coloredNoise1" result="noise1Clipped" />
<feComponentTransfer in="noise1Clipped" result="color1">
<feFuncA type="table" tableValues="0 0.15" />
</feComponentTransfer>
<feMerge result="effect1_noise_382_327">
<feMergeNode in="shape" />
<feMergeNode in="color1" />
</feMerge>
</filter>
<filter id="filter4_n_382_327" x="281.324" y="195.573" width="42.4956" height="66.6011" filterUnits="userSpaceOnUse" color-interpolation-filters="sRGB">
<feFlood flood-opacity="0" result="BackgroundImageFix"/>
<feBlend mode="normal" in="SourceGraphic" in2="BackgroundImageFix" result="shape"/>
<feTurbulence type="fractalNoise" baseFrequency="1.1916933059692383 1.1916933059692383" stitchTiles="stitch" numOctaves="3" result="noise" seed="5863" />
<feComponentTransfer in="noise" result="coloredNoise1">
<feFuncR type="linear" slope="2" intercept="-0.5" />
<feFuncG type="linear" slope="2" intercept="-0.5" />
<feFuncB type="linear" slope="2" intercept="-0.5" />
<feFuncA type="discrete" tableValues="1 1 1 1 1 1 1 1 1 1 1 1 1 1 1 1 1 1 1 1 1 1 1 1 1 1 1 1 1 1 1 1 1 1 1 1 1 1 1 1 1 1 1 1 1 1 1 1 1 1 1 0 0 0 0 0 0 0 0 0 0 0 0 0 0 0 0 0 0 0 0 0 0 0 0 0 0 0 0 0 0 0 0 0 0 0 0 0 0 0 0 0 0 0 0 0 0 0 0 0 "/>
</feComponentTransfer>
<feComposite operator="in" in2="shape" in="coloredNoise1" result="noise1Clipped" />
<feComponentTransfer in="noise1Clipped" result="color1">
<feFuncA type="table" tableValues="0 0.15" />
</feComponentTransfer>
<feMerge result="effect1_noise_382_327">
<feMergeNode in="shape" />
<feMergeNode in="color1" />
</feMerge>
</filter>
<filter id="filter5_n_382_327" x="301.009" y="201.367" width="21.1274" height="22.3842" filterUnits="userSpaceOnUse" color-interpolation-filters="sRGB">
<feFlood flood-opacity="0" result="BackgroundImageFix"/>
<feBlend mode="normal" in="SourceGraphic" in2="BackgroundImageFix" result="shape"/>
<feTurbulence type="fractalNoise" baseFrequency="1.1916933059692383 1.1916933059692383" stitchTiles="stitch" numOctaves="3" result="noise" seed="5863" />
<feComponentTransfer in="noise" result="coloredNoise1">
<feFuncR type="linear" slope="2" intercept="-0.5" />
<feFuncG type="linear" slope="2" intercept="-0.5" />
<feFuncB type="linear" slope="2" intercept="-0.5" />
<feFuncA type="discrete" tableValues="1 1 1 1 1 1 1 1 1 1 1 1 1 1 1 1 1 1 1 1 1 1 1 1 1 1 1 1 1 1 1 1 1 1 1 1 1 1 1 1 1 1 1 1 1 1 1 1 1 1 1 0 0 0 0 0 0 0 0 0 0 0 0 0 0 0 0 0 0 0 0 0 0 0 0 0 0 0 0 0 0 0 0 0 0 0 0 0 0 0 0 0 0 0 0 0 0 0 0 0 "/>
</feComponentTransfer>
<feComposite operator="in" in2="shape" in="coloredNoise1" result="noise1Clipped" />
<feComponentTransfer in="noise1Clipped" result="color1">
<feFuncA type="table" tableValues="0 0.15" />
</feComponentTransfer>
<feMerge result="effect1_noise_382_327">
<feMergeNode in="shape" />
<feMergeNode in="color1" />
</feMerge>
</filter>
<filter id="filter6_n_382_327" x="348.35" y="165.041" width="42.4956" height="66.6011" filterUnits="userSpaceOnUse" color-interpolation-filters="sRGB">
<feFlood flood-opacity="0" result="BackgroundImageFix"/>
<feBlend mode="normal" in="SourceGraphic" in2="BackgroundImageFix" result="shape"/>
<feTurbulence type="fractalNoise" baseFrequency="1.1916933059692383 1.1916933059692383" stitchTiles="stitch" numOctaves="3" result="noise" seed="5863" />
<feComponentTransfer in="noise" result="coloredNoise1">
<feFuncR type="linear" slope="2" intercept="-0.5" />
<feFuncG type="linear" slope="2" intercept="-0.5" />
<feFuncB type="linear" slope="2" intercept="-0.5" />
<feFuncA type="discrete" tableValues="1 1 1 1 1 1 1 1 1 1 1 1 1 1 1 1 1 1 1 1 1 1 1 1 1 1 1 1 1 1 1 1 1 1 1 1 1 1 1 1 1 1 1 1 1 1 1 1 1 1 1 0 0 0 0 0 0 0 0 0 0 0 0 0 0 0 0 0 0 0 0 0 0 0 0 0 0 0 0 0 0 0 0 0 0 0 0 0 0 0 0 0 0 0 0 0 0 0 0 0 "/>
</feComponentTransfer>
<feComposite operator="in" in2="shape" in="coloredNoise1" result="noise1Clipped" />
<feComponentTransfer in="noise1Clipped" result="color1">
<feFuncA type="table" tableValues="0 0.15" />
</feComponentTransfer>
<feMerge result="effect1_noise_382_327">
<feMergeNode in="shape" />
<feMergeNode in="color1" />
</feMerge>
</filter>
<filter id="filter7_n_382_327" x="368.034" y="172.972" width="21.1274" height="22.3842" filterUnits="userSpaceOnUse" color-interpolation-filters="sRGB">
<feFlood flood-opacity="0" result="BackgroundImageFix"/>
<feBlend mode="normal" in="SourceGraphic" in2="BackgroundImageFix" result="shape"/>
<feTurbulence type="fractalNoise" baseFrequency="1.1916933059692383 1.1916933059692383" stitchTiles="stitch" numOctaves="3" result="noise" seed="5863" />
<feComponentTransfer in="noise" result="coloredNoise1">
<feFuncR type="linear" slope="2" intercept="-0.5" />
<feFuncG type="linear" slope="2" intercept="-0.5" />
<feFuncB type="linear" slope="2" intercept="-0.5" />
<feFuncA type="discrete" tableValues="1 1 1 1 1 1 1 1 1 1 1 1 1 1 1 1 1 1 1 1 1 1 1 1 1 1 1 1 1 1 1 1 1 1 1 1 1 1 1 1 1 1 1 1 1 1 1 1 1 1 1 0 0 0 0 0 0 0 0 0 0 0 0 0 0 0 0 0 0 0 0 0 0 0 0 0 0 0 0 0 0 0 0 0 0 0 0 0 0 0 0 0 0 0 0 0 0 0 0 0 "/>
</feComponentTransfer>
<feComposite operator="in" in2="shape" in="coloredNoise1" result="noise1Clipped" />
<feComponentTransfer in="noise1Clipped" result="color1">
<feFuncA type="table" tableValues="0 0.15" />
</feComponentTransfer>
<feMerge result="effect1_noise_382_327">
<feMergeNode in="shape" />
<feMergeNode in="color1" />
</feMerge>
</filter>
</defs>
</svg>
