<svg width="342" height="394" viewBox="0 0 342 394" fill="none" xmlns="http://www.w3.org/2000/svg">
<ellipse cx="69.7544" cy="48.7105" rx="69.7544" ry="48.7105" transform="matrix(-0.95044 0.310907 -0.3299 -0.944016 189.465 349.314)" fill="#F8029A"/>
<ellipse cx="69.7355" cy="48.7244" rx="69.7355" ry="48.7244" transform="matrix(0.946229 0.323498 -0.34307 0.93931 209.759 257.347)" fill="#F8029A"/>
<path d="M339.084 166.466C339.084 248.463 268.714 314.935 181.907 314.935C95.1009 314.935 24.7305 248.463 24.7305 166.466C24.7305 84.4682 95.1009 17.9963 181.907 17.9963C268.714 17.9963 339.084 84.4682 339.084 166.466Z" fill="#FFAADE"/>
<path d="M122.385 208.356C129.331 196.211 136.465 190.162 142.223 187.521C153.033 182.564 172.164 187.297 181.913 190.217C188.27 192.121 191.468 196.4 195.176 202.039C195.748 203.355 195.748 204.214 195.97 205.087C196.192 205.96 196.637 206.819 197.094 207.705" stroke="#EF4452" stroke-width="7" stroke-linecap="round"/>
<g filter="url(#filter0_d_379_25)">
<ellipse cx="51.6626" cy="55.4974" rx="51.6626" ry="55.4974" transform="matrix(0.238993 0.971021 -0.974473 0.224506 184.975 189.861)" fill="#FFAADE"/>
</g>
<g filter="url(#filter1_d_379_25)">
<ellipse cx="52.3603" cy="54.7815" rx="52.3603" ry="54.7815" transform="matrix(0.685291 0.72827 -0.750411 0.660972 217.622 176.363)" fill="#FFAADE"/>
</g>
<g filter="url(#filter2_f_379_25)">
<ellipse cx="85.761" cy="157.973" rx="38.7092" ry="39.1979" fill="#FF7161" fill-opacity="0.4"/>
</g>
<g filter="url(#filter3_f_379_25)">
<ellipse cx="230.847" cy="157.973" rx="38.7092" ry="39.1979" fill="#FF7161" fill-opacity="0.4"/>
</g>
<g filter="url(#filter4_n_379_25)">
<ellipse cx="18.9847" cy="29.7608" rx="18.9847" ry="29.7608" transform="matrix(0.99222 -0.124499 0.132858 0.991135 93.5537 109.105)" fill="#3C3C3C"/>
</g>
<g filter="url(#filter5_n_379_25)">
<ellipse cx="9.55216" cy="9.96197" rx="9.55216" ry="9.96197" transform="matrix(0.99222 -0.124499 0.132858 0.991135 113.697 114.955)" fill="white"/>
</g>
<g filter="url(#filter6_n_379_25)">
<ellipse cx="18.9847" cy="29.7608" rx="18.9847" ry="29.7608" transform="matrix(0.99222 -0.124499 0.132858 0.991135 166.097 109.105)" fill="#3C3C3C"/>
</g>
<g filter="url(#filter7_n_379_25)">
<ellipse cx="9.55216" cy="9.96197" rx="9.55216" ry="9.96197" transform="matrix(0.99222 -0.124499 0.132858 0.991135 186.24 114.955)" fill="white"/>
</g>
<path d="M174.307 95.3402C174.503 94.9604 174.699 94.5805 180.198 90.6816C185.698 86.7826 196.494 79.376 209.401 70.594" stroke="#3C3C3C" stroke-width="7" stroke-linecap="round"/>
<path d="M134.229 94.9316C134.032 94.5518 133.836 94.172 128.337 90.273C122.838 86.374 112.042 78.9674 99.1338 70.1854" stroke="#3C3C3C" stroke-width="7" stroke-linecap="round"/>
<path d="M269.456 90.0065C256.815 90.0065 246.95 92.3544 240.219 94.7213C236.726 95.9491 233.871 91.4874 236.147 88.3863C242.224 80.102 252.932 70.2388 269.456 70.2388C285.979 70.2388 296.687 80.102 302.764 88.3863C305.04 91.4874 302.182 95.9491 298.692 94.7213C291.961 92.3544 282.097 90.0065 269.456 90.0065Z" fill="#EF4452"/>
<path d="M313.069 47.1201C313.069 59.3503 315.496 68.8939 317.943 75.4062C319.212 78.7857 314.6 81.5482 311.395 79.3458C302.832 73.4664 292.638 63.1064 292.638 47.1201C292.638 31.1306 302.832 20.7737 311.395 14.8943C314.6 12.692 319.212 15.4576 317.943 18.834C315.496 25.3462 313.069 34.8899 313.069 47.1201Z" fill="#EF4452"/>
<path d="M268.742 4.92347C281.383 4.92347 291.248 2.57553 297.979 0.208595C301.472 -1.01917 304.327 3.44256 302.051 6.54362C295.974 14.8279 285.266 24.6912 268.742 24.6912C252.216 24.6912 241.511 14.8279 235.434 6.54362C233.158 3.44256 236.016 -1.01917 239.506 0.208595C246.237 2.57553 256.101 4.92347 268.742 4.92347Z" fill="#EF4452"/>
<path d="M225.128 47.8099C225.128 35.5797 222.701 26.036 220.255 19.5238C218.986 16.1443 223.597 13.3818 226.802 15.5842C235.365 21.4635 245.56 31.8236 245.56 47.8099C245.56 63.7962 235.365 74.1563 226.802 80.0356C223.597 82.238 218.986 79.4724 220.255 76.096C222.701 69.5838 225.128 60.0401 225.128 47.8099Z" fill="#EF4452"/>
<defs>
<filter id="filter0_d_379_25" x="79.6568" y="200.784" width="127.169" height="120.503" filterUnits="userSpaceOnUse" color-interpolation-filters="sRGB">
<feFlood flood-opacity="0" result="BackgroundImageFix"/>
<feColorMatrix in="SourceAlpha" type="matrix" values="0 0 0 0 0 0 0 0 0 0 0 0 0 0 0 0 0 0 127 0" result="hardAlpha"/>
<feOffset dy="9"/>
<feGaussianBlur stdDeviation="4.05"/>
<feComposite in2="hardAlpha" operator="out"/>
<feColorMatrix type="matrix" values="0 0 0 0 0 0 0 0 0 0 0 0 0 0 0 0 0 0 0.25 0"/>
<feBlend mode="normal" in2="BackgroundImageFix" result="effect1_dropShadow_379_25"/>
<feBlend mode="normal" in="SourceGraphic" in2="effect1_dropShadow_379_25" result="shape"/>
</filter>
<filter id="filter1_d_379_25" x="149.729" y="198.12" width="125.333" height="122.27" filterUnits="userSpaceOnUse" color-interpolation-filters="sRGB">
<feFlood flood-opacity="0" result="BackgroundImageFix"/>
<feColorMatrix in="SourceAlpha" type="matrix" values="0 0 0 0 0 0 0 0 0 0 0 0 0 0 0 0 0 0 127 0" result="hardAlpha"/>
<feOffset dy="9"/>
<feGaussianBlur stdDeviation="4.05"/>
<feComposite in2="hardAlpha" operator="out"/>
<feColorMatrix type="matrix" values="0 0 0 0 0 0 0 0 0 0 0 0 0 0 0 0 0 0 0.25 0"/>
<feBlend mode="normal" in2="BackgroundImageFix" result="effect1_dropShadow_379_25"/>
<feBlend mode="normal" in="SourceGraphic" in2="effect1_dropShadow_379_25" result="shape"/>
</filter>
<filter id="filter2_f_379_25" x="-0.000141144" y="71.7235" width="171.523" height="172.5" filterUnits="userSpaceOnUse" color-interpolation-filters="sRGB">
<feFlood flood-opacity="0" result="BackgroundImageFix"/>
<feBlend mode="normal" in="SourceGraphic" in2="BackgroundImageFix" result="shape"/>
<feGaussianBlur stdDeviation="23.5259" result="effect1_foregroundBlur_379_25"/>
</filter>
<filter id="filter3_f_379_25" x="145.086" y="71.7235" width="171.523" height="172.5" filterUnits="userSpaceOnUse" color-interpolation-filters="sRGB">
<feFlood flood-opacity="0" result="BackgroundImageFix"/>
<feBlend mode="normal" in="SourceGraphic" in2="BackgroundImageFix" result="shape"/>
<feGaussianBlur stdDeviation="23.5259" result="effect1_foregroundBlur_379_25"/>
</filter>
<filter id="filter4_n_379_25" x="97.0938" y="106.646" width="38.502" height="59.1862" filterUnits="userSpaceOnUse" color-interpolation-filters="sRGB">
<feFlood flood-opacity="0" result="BackgroundImageFix"/>
<feBlend mode="normal" in="SourceGraphic" in2="BackgroundImageFix" result="shape"/>
<feTurbulence type="fractalNoise" baseFrequency="1.1916933059692383 1.1916933059692383" stitchTiles="stitch" numOctaves="3" result="noise" seed="5863" />
<feComponentTransfer in="noise" result="coloredNoise1">
<feFuncR type="linear" slope="2" intercept="-0.5" />
<feFuncG type="linear" slope="2" intercept="-0.5" />
<feFuncB type="linear" slope="2" intercept="-0.5" />
<feFuncA type="discrete" tableValues="1 1 1 1 1 1 1 1 1 1 1 1 1 1 1 1 1 1 1 1 1 1 1 1 1 1 1 1 1 1 1 1 1 1 1 1 1 1 1 1 1 1 1 1 1 1 1 1 1 1 1 0 0 0 0 0 0 0 0 0 0 0 0 0 0 0 0 0 0 0 0 0 0 0 0 0 0 0 0 0 0 0 0 0 0 0 0 0 0 0 0 0 0 0 0 0 0 0 0 0 "/>
</feComponentTransfer>
<feComposite operator="in" in2="shape" in="coloredNoise1" result="noise1Clipped" />
<feComponentTransfer in="noise1Clipped" result="color1">
<feFuncA type="table" tableValues="0 0.15" />
</feComponentTransfer>
<feMerge result="effect1_noise_379_25">
<feMergeNode in="shape" />
<feMergeNode in="color1" />
</feMerge>
</filter>
<filter id="filter5_n_379_25" x="114.928" y="113.694" width="19.1416" height="19.892" filterUnits="userSpaceOnUse" color-interpolation-filters="sRGB">
<feFlood flood-opacity="0" result="BackgroundImageFix"/>
<feBlend mode="normal" in="SourceGraphic" in2="BackgroundImageFix" result="shape"/>
<feTurbulence type="fractalNoise" baseFrequency="1.1916933059692383 1.1916933059692383" stitchTiles="stitch" numOctaves="3" result="noise" seed="5863" />
<feComponentTransfer in="noise" result="coloredNoise1">
<feFuncR type="linear" slope="2" intercept="-0.5" />
<feFuncG type="linear" slope="2" intercept="-0.5" />
<feFuncB type="linear" slope="2" intercept="-0.5" />
<feFuncA type="discrete" tableValues="1 1 1 1 1 1 1 1 1 1 1 1 1 1 1 1 1 1 1 1 1 1 1 1 1 1 1 1 1 1 1 1 1 1 1 1 1 1 1 1 1 1 1 1 1 1 1 1 1 1 1 0 0 0 0 0 0 0 0 0 0 0 0 0 0 0 0 0 0 0 0 0 0 0 0 0 0 0 0 0 0 0 0 0 0 0 0 0 0 0 0 0 0 0 0 0 0 0 0 0 "/>
</feComponentTransfer>
<feComposite operator="in" in2="shape" in="coloredNoise1" result="noise1Clipped" />
<feComponentTransfer in="noise1Clipped" result="color1">
<feFuncA type="table" tableValues="0 0.15" />
</feComponentTransfer>
<feMerge result="effect1_noise_379_25">
<feMergeNode in="shape" />
<feMergeNode in="color1" />
</feMerge>
</filter>
<filter id="filter6_n_379_25" x="169.637" y="106.646" width="38.502" height="59.1862" filterUnits="userSpaceOnUse" color-interpolation-filters="sRGB">
<feFlood flood-opacity="0" result="BackgroundImageFix"/>
<feBlend mode="normal" in="SourceGraphic" in2="BackgroundImageFix" result="shape"/>
<feTurbulence type="fractalNoise" baseFrequency="1.1916933059692383 1.1916933059692383" stitchTiles="stitch" numOctaves="3" result="noise" seed="5863" />
<feComponentTransfer in="noise" result="coloredNoise1">
<feFuncR type="linear" slope="2" intercept="-0.5" />
<feFuncG type="linear" slope="2" intercept="-0.5" />
<feFuncB type="linear" slope="2" intercept="-0.5" />
<feFuncA type="discrete" tableValues="1 1 1 1 1 1 1 1 1 1 1 1 1 1 1 1 1 1 1 1 1 1 1 1 1 1 1 1 1 1 1 1 1 1 1 1 1 1 1 1 1 1 1 1 1 1 1 1 1 1 1 0 0 0 0 0 0 0 0 0 0 0 0 0 0 0 0 0 0 0 0 0 0 0 0 0 0 0 0 0 0 0 0 0 0 0 0 0 0 0 0 0 0 0 0 0 0 0 0 0 "/>
</feComponentTransfer>
<feComposite operator="in" in2="shape" in="coloredNoise1" result="noise1Clipped" />
<feComponentTransfer in="noise1Clipped" result="color1">
<feFuncA type="table" tableValues="0 0.15" />
</feComponentTransfer>
<feMerge result="effect1_noise_379_25">
<feMergeNode in="shape" />
<feMergeNode in="color1" />
</feMerge>
</filter>
<filter id="filter7_n_379_25" x="187.471" y="113.694" width="19.1416" height="19.892" filterUnits="userSpaceOnUse" color-interpolation-filters="sRGB">
<feFlood flood-opacity="0" result="BackgroundImageFix"/>
<feBlend mode="normal" in="SourceGraphic" in2="BackgroundImageFix" result="shape"/>
<feTurbulence type="fractalNoise" baseFrequency="1.1916933059692383 1.1916933059692383" stitchTiles="stitch" numOctaves="3" result="noise" seed="5863" />
<feComponentTransfer in="noise" result="coloredNoise1">
<feFuncR type="linear" slope="2" intercept="-0.5" />
<feFuncG type="linear" slope="2" intercept="-0.5" />
<feFuncB type="linear" slope="2" intercept="-0.5" />
<feFuncA type="discrete" tableValues="1 1 1 1 1 1 1 1 1 1 1 1 1 1 1 1 1 1 1 1 1 1 1 1 1 1 1 1 1 1 1 1 1 1 1 1 1 1 1 1 1 1 1 1 1 1 1 1 1 1 1 0 0 0 0 0 0 0 0 0 0 0 0 0 0 0 0 0 0 0 0 0 0 0 0 0 0 0 0 0 0 0 0 0 0 0 0 0 0 0 0 0 0 0 0 0 0 0 0 0 "/>
</feComponentTransfer>
<feComposite operator="in" in2="shape" in="coloredNoise1" result="noise1Clipped" />
<feComponentTransfer in="noise1Clipped" result="color1">
<feFuncA type="table" tableValues="0 0.15" />
</feComponentTransfer>
<feMerge result="effect1_noise_379_25">
<feMergeNode in="shape" />
<feMergeNode in="color1" />
</feMerge>
</filter>
</defs>
</svg>
